<svg width="80" height="15" viewBox="0 0 80 15" fill="none" xmlns="http://www.w3.org/2000/svg">
<path d="M10.8398 14.2773H9.17969V7.55859H1.66016V14.2773H0V0H1.66016V6.07422H9.17969V0H10.8398V14.2773ZM21.1035 14.2773L20.7812 12.7539H20.7031C20.1693 13.4245 19.6354 13.8802 19.1016 14.1211C18.5742 14.3555 17.9134 14.4727 17.1191 14.4727C16.0579 14.4727 15.2246 14.1992 14.6191 13.6523C14.0202 13.1055 13.7207 12.3275 13.7207 11.3184C13.7207 9.1569 15.4492 8.02409 18.9062 7.91992L20.7227 7.86133V7.19727C20.7227 6.35742 20.5404 5.73893 20.1758 5.3418C19.8177 4.93815 19.2415 4.73633 18.4473 4.73633C17.5553 4.73633 16.5462 5.00977 15.4199 5.55664L14.9219 4.31641C15.4492 4.02995 16.0254 3.80534 16.6504 3.64258C17.2819 3.47982 17.9134 3.39844 18.5449 3.39844C19.821 3.39844 20.765 3.68164 21.377 4.24805C21.9954 4.81445 22.3047 5.72266 22.3047 6.97266V14.2773H21.1035ZM17.4414 13.1348C18.4505 13.1348 19.2415 12.8581 19.8145 12.3047C20.3939 11.7513 20.6836 10.9766 20.6836 9.98047V9.01367L19.0625 9.08203C17.7734 9.1276 16.8424 9.32943 16.2695 9.6875C15.7031 10.0391 15.4199 10.5892 15.4199 11.3379C15.4199 11.9238 15.5957 12.3698 15.9473 12.6758C16.3053 12.9818 16.8034 13.1348 17.4414 13.1348ZM27.2754 14.2773H25.6543V3.57422H34.6387V14.2773H32.998V4.98047H27.2754V14.2773ZM39.5996 3.57422V10.3613L39.5312 12.1387L39.502 12.6953L45.293 3.57422H47.3145V14.2773H45.8008V7.73438L45.8301 6.44531L45.8789 5.17578L40.0977 14.2773H38.0762V3.57422H39.5996ZM57.9688 4.96094H54.4922V14.2773H52.8711V4.96094H49.4336V3.57422H57.9688V4.96094ZM66.3281 3.57422H68.1055L63.4863 8.74023L68.4863 14.2773H66.5918L61.709 8.85742V14.2773H60.0879V3.57422H61.709V8.7793L66.3281 3.57422ZM72.002 3.57422V10.3613L71.9336 12.1387L71.9043 12.6953L77.6953 3.57422H79.7168V14.2773H78.2031V7.73438L78.2324 6.44531L78.2812 5.17578L72.5 14.2773H70.4785V3.57422H72.002Z" fill="black"/>
</svg>
